<mxfile host="app.diagrams.net" modified="2023-07-10T13:11:08.092Z" agent="Mozilla/5.0 (Windows NT 10.0; Win64; x64) AppleWebKit/537.36 (KHTML, like Gecko) Chrome/114.0.0.0 Safari/537.36" etag="VO3vKZ0urzARPgjag4iZ" version="21.6.1" type="github">
  <diagram name="第 1 页" id="r2wdofjYF7ekAxWzM3SU">
    <mxGraphModel dx="1050" dy="549" grid="1" gridSize="10" guides="1" tooltips="1" connect="1" arrows="1" fold="1" page="1" pageScale="1" pageWidth="827" pageHeight="1169" math="0" shadow="0">
      <root>
        <mxCell id="0" />
        <mxCell id="1" parent="0" />
        <mxCell id="rxoJA6Dh1Gq2LasLlFpg-1" value="&lt;b&gt;&lt;font style=&quot;font-size: 16px;&quot;&gt;工程&lt;/font&gt;&lt;/b&gt;" style="ellipse;whiteSpace=wrap;html=1;" vertex="1" parent="1">
          <mxGeometry x="354" y="80" width="96" height="90" as="geometry" />
        </mxCell>
        <mxCell id="rxoJA6Dh1Gq2LasLlFpg-2" value="&lt;font style=&quot;font-size: 16px;&quot;&gt;&lt;b&gt;质量&lt;/b&gt;&lt;/font&gt;" style="ellipse;whiteSpace=wrap;html=1;" vertex="1" parent="1">
          <mxGeometry x="194" y="240" width="96" height="90" as="geometry" />
        </mxCell>
        <mxCell id="rxoJA6Dh1Gq2LasLlFpg-3" value="&lt;font style=&quot;font-size: 16px;&quot;&gt;&lt;b&gt;生产&lt;/b&gt;&lt;/font&gt;" style="ellipse;whiteSpace=wrap;html=1;" vertex="1" parent="1">
          <mxGeometry x="354" y="240" width="96" height="90" as="geometry" />
        </mxCell>
        <mxCell id="rxoJA6Dh1Gq2LasLlFpg-4" value="&lt;font style=&quot;font-size: 16px;&quot;&gt;&lt;b&gt;交付&lt;/b&gt;&lt;/font&gt;" style="ellipse;whiteSpace=wrap;html=1;" vertex="1" parent="1">
          <mxGeometry x="512" y="240" width="96" height="90" as="geometry" />
        </mxCell>
        <mxCell id="rxoJA6Dh1Gq2LasLlFpg-5" value="&lt;font style=&quot;font-size: 16px;&quot;&gt;&lt;b&gt;采购&lt;/b&gt;&lt;/font&gt;" style="ellipse;whiteSpace=wrap;html=1;" vertex="1" parent="1">
          <mxGeometry x="354" y="400" width="96" height="90" as="geometry" />
        </mxCell>
        <mxCell id="rxoJA6Dh1Gq2LasLlFpg-6" value="" style="shape=flexArrow;endArrow=classic;startArrow=classic;html=1;rounded=0;" edge="1" parent="1">
          <mxGeometry width="100" height="100" relative="1" as="geometry">
            <mxPoint x="401.5" y="240" as="sourcePoint" />
            <mxPoint x="402" y="170" as="targetPoint" />
          </mxGeometry>
        </mxCell>
        <mxCell id="rxoJA6Dh1Gq2LasLlFpg-9" value="" style="shape=flexArrow;endArrow=classic;startArrow=classic;html=1;rounded=0;" edge="1" parent="1">
          <mxGeometry width="100" height="100" relative="1" as="geometry">
            <mxPoint x="401.5" y="400" as="sourcePoint" />
            <mxPoint x="402" y="330" as="targetPoint" />
          </mxGeometry>
        </mxCell>
        <mxCell id="rxoJA6Dh1Gq2LasLlFpg-10" value="" style="shape=flexArrow;endArrow=classic;startArrow=classic;html=1;rounded=0;" edge="1" parent="1">
          <mxGeometry width="100" height="100" relative="1" as="geometry">
            <mxPoint x="354" y="284.5" as="sourcePoint" />
            <mxPoint x="290" y="284.5" as="targetPoint" />
          </mxGeometry>
        </mxCell>
        <mxCell id="rxoJA6Dh1Gq2LasLlFpg-12" value="" style="shape=flexArrow;endArrow=classic;startArrow=classic;html=1;rounded=0;" edge="1" parent="1">
          <mxGeometry width="100" height="100" relative="1" as="geometry">
            <mxPoint x="514" y="284.5" as="sourcePoint" />
            <mxPoint x="450" y="284.5" as="targetPoint" />
          </mxGeometry>
        </mxCell>
      </root>
    </mxGraphModel>
  </diagram>
</mxfile>
